<mxfile host="app.diagrams.net" agent="Mozilla/5.0 (Windows NT 10.0; Win64; x64; rv:139.0) Gecko/20100101 Firefox/139.0" version="26.2.14">
  <diagram name="Page-1" id="fSPhrJP2bQNqkXT_C-aF">
    <mxGraphModel dx="1678" dy="893" grid="1" gridSize="10" guides="1" tooltips="1" connect="1" arrows="1" fold="1" page="1" pageScale="1" pageWidth="850" pageHeight="1100" math="0" shadow="0">
      <root>
        <mxCell id="0" />
        <mxCell id="1" parent="0" />
        <mxCell id="KeqWKgS8gJ3fwngXlHam-51" value="" style="rounded=1;whiteSpace=wrap;html=1;fillColor=none;dashed=1;strokeColor=#909090;fontColor=#333333;" vertex="1" parent="1">
          <mxGeometry x="130" y="70" width="240" height="270" as="geometry" />
        </mxCell>
        <mxCell id="KeqWKgS8gJ3fwngXlHam-2" value="3.3v" style="ellipse;whiteSpace=wrap;html=1;aspect=fixed;fillColor=#ffe6cc;strokeColor=#d79b00;strokeWidth=2;" vertex="1" parent="1">
          <mxGeometry x="25" y="450" width="40" height="40" as="geometry" />
        </mxCell>
        <mxCell id="KeqWKgS8gJ3fwngXlHam-3" value="" style="ellipse;whiteSpace=wrap;html=1;aspect=fixed;strokeWidth=2;" vertex="1" parent="1">
          <mxGeometry x="65" y="450" width="40" height="40" as="geometry" />
        </mxCell>
        <mxCell id="KeqWKgS8gJ3fwngXlHam-4" value="" style="ellipse;whiteSpace=wrap;html=1;aspect=fixed;strokeWidth=2;" vertex="1" parent="1">
          <mxGeometry x="105" y="450" width="40" height="40" as="geometry" />
        </mxCell>
        <mxCell id="KeqWKgS8gJ3fwngXlHam-5" value="" style="ellipse;whiteSpace=wrap;html=1;aspect=fixed;strokeWidth=2;" vertex="1" parent="1">
          <mxGeometry x="145" y="450" width="40" height="40" as="geometry" />
        </mxCell>
        <mxCell id="KeqWKgS8gJ3fwngXlHam-6" value="GND" style="ellipse;whiteSpace=wrap;html=1;aspect=fixed;fillColor=#323232;fontColor=#FFFFFF;strokeColor=#666666;strokeWidth=2;" vertex="1" parent="1">
          <mxGeometry x="185" y="450" width="40" height="40" as="geometry" />
        </mxCell>
        <mxCell id="KeqWKgS8gJ3fwngXlHam-7" value="" style="ellipse;whiteSpace=wrap;html=1;aspect=fixed;strokeWidth=2;" vertex="1" parent="1">
          <mxGeometry x="225" y="450" width="40" height="40" as="geometry" />
        </mxCell>
        <mxCell id="KeqWKgS8gJ3fwngXlHam-14" value="" style="ellipse;whiteSpace=wrap;html=1;aspect=fixed;strokeWidth=2;" vertex="1" parent="1">
          <mxGeometry x="265" y="450" width="40" height="40" as="geometry" />
        </mxCell>
        <mxCell id="KeqWKgS8gJ3fwngXlHam-15" value="" style="ellipse;whiteSpace=wrap;html=1;aspect=fixed;strokeWidth=2;" vertex="1" parent="1">
          <mxGeometry x="305" y="450" width="40" height="40" as="geometry" />
        </mxCell>
        <mxCell id="KeqWKgS8gJ3fwngXlHam-16" value="3.3v" style="ellipse;whiteSpace=wrap;html=1;aspect=fixed;fillColor=#ffe6cc;strokeColor=#d79b00;strokeWidth=2;" vertex="1" parent="1">
          <mxGeometry x="345" y="450" width="40" height="40" as="geometry" />
        </mxCell>
        <mxCell id="KeqWKgS8gJ3fwngXlHam-17" value="" style="ellipse;whiteSpace=wrap;html=1;aspect=fixed;strokeWidth=2;" vertex="1" parent="1">
          <mxGeometry x="385" y="450" width="40" height="40" as="geometry" />
        </mxCell>
        <mxCell id="KeqWKgS8gJ3fwngXlHam-18" value="" style="ellipse;whiteSpace=wrap;html=1;aspect=fixed;strokeWidth=2;" vertex="1" parent="1">
          <mxGeometry x="425" y="450" width="40" height="40" as="geometry" />
        </mxCell>
        <mxCell id="KeqWKgS8gJ3fwngXlHam-19" value="" style="ellipse;whiteSpace=wrap;html=1;aspect=fixed;strokeWidth=2;" vertex="1" parent="1">
          <mxGeometry x="465" y="450" width="40" height="40" as="geometry" />
        </mxCell>
        <mxCell id="KeqWKgS8gJ3fwngXlHam-20" value="GND" style="ellipse;whiteSpace=wrap;html=1;aspect=fixed;fillColor=#323232;fontColor=#FFFFFF;strokeColor=#666666;strokeWidth=2;" vertex="1" parent="1">
          <mxGeometry x="505" y="450" width="40" height="40" as="geometry" />
        </mxCell>
        <mxCell id="KeqWKgS8gJ3fwngXlHam-21" value="" style="ellipse;whiteSpace=wrap;html=1;aspect=fixed;strokeWidth=2;" vertex="1" parent="1">
          <mxGeometry x="545" y="450" width="40" height="40" as="geometry" />
        </mxCell>
        <mxCell id="KeqWKgS8gJ3fwngXlHam-22" value="" style="ellipse;whiteSpace=wrap;html=1;aspect=fixed;strokeWidth=2;" vertex="1" parent="1">
          <mxGeometry x="585" y="450" width="40" height="40" as="geometry" />
        </mxCell>
        <mxCell id="KeqWKgS8gJ3fwngXlHam-23" value="" style="ellipse;whiteSpace=wrap;html=1;aspect=fixed;strokeWidth=2;" vertex="1" parent="1">
          <mxGeometry x="625" y="450" width="40" height="40" as="geometry" />
        </mxCell>
        <mxCell id="KeqWKgS8gJ3fwngXlHam-138" style="edgeStyle=orthogonalEdgeStyle;rounded=0;orthogonalLoop=1;jettySize=auto;html=1;entryX=1;entryY=0.8;entryDx=0;entryDy=0;fillColor=#fff2cc;strokeColor=#d6b656;strokeWidth=2;" edge="1" parent="1" source="KeqWKgS8gJ3fwngXlHam-24" target="KeqWKgS8gJ3fwngXlHam-137">
          <mxGeometry relative="1" as="geometry">
            <Array as="points">
              <mxPoint x="685" y="580" />
            </Array>
          </mxGeometry>
        </mxCell>
        <mxCell id="KeqWKgS8gJ3fwngXlHam-24" value="PWM*" style="ellipse;whiteSpace=wrap;html=1;aspect=fixed;fillColor=#fff2cc;strokeColor=#97D077;fontStyle=0;strokeWidth=2;" vertex="1" parent="1">
          <mxGeometry x="665" y="450" width="40" height="40" as="geometry" />
        </mxCell>
        <mxCell id="KeqWKgS8gJ3fwngXlHam-25" value="PWM" style="ellipse;whiteSpace=wrap;html=1;aspect=fixed;fillColor=none;strokeColor=#82b366;fontStyle=0;strokeWidth=2;" vertex="1" parent="1">
          <mxGeometry x="705" y="450" width="40" height="40" as="geometry" />
        </mxCell>
        <mxCell id="KeqWKgS8gJ3fwngXlHam-86" style="edgeStyle=orthogonalEdgeStyle;rounded=0;orthogonalLoop=1;jettySize=auto;html=1;entryX=0;entryY=0.8;entryDx=0;entryDy=0;fillColor=#fff2cc;strokeColor=#d6b656;strokeWidth=2;" edge="1" parent="1" source="KeqWKgS8gJ3fwngXlHam-26" target="KeqWKgS8gJ3fwngXlHam-85">
          <mxGeometry relative="1" as="geometry">
            <Array as="points">
              <mxPoint x="765" y="510" />
              <mxPoint x="750" y="510" />
            </Array>
          </mxGeometry>
        </mxCell>
        <mxCell id="KeqWKgS8gJ3fwngXlHam-26" value="*" style="ellipse;whiteSpace=wrap;html=1;aspect=fixed;fillColor=#fff2cc;strokeColor=#d6b656;strokeWidth=2;" vertex="1" parent="1">
          <mxGeometry x="745" y="450" width="40" height="40" as="geometry" />
        </mxCell>
        <mxCell id="KeqWKgS8gJ3fwngXlHam-27" value="GND" style="ellipse;whiteSpace=wrap;html=1;aspect=fixed;fillColor=#323232;fontColor=#FFFFFF;strokeColor=#666666;strokeWidth=2;" vertex="1" parent="1">
          <mxGeometry x="785" y="450" width="40" height="40" as="geometry" />
        </mxCell>
        <mxCell id="KeqWKgS8gJ3fwngXlHam-28" value="5v" style="ellipse;whiteSpace=wrap;html=1;aspect=fixed;fillColor=#f8cecc;strokeColor=#b85450;strokeWidth=2;" vertex="1" parent="1">
          <mxGeometry x="25" y="390" width="40" height="40" as="geometry" />
        </mxCell>
        <mxCell id="KeqWKgS8gJ3fwngXlHam-29" value="5v" style="ellipse;whiteSpace=wrap;html=1;aspect=fixed;fillColor=#f8cecc;strokeColor=#b85450;strokeWidth=2;" vertex="1" parent="1">
          <mxGeometry x="65" y="390" width="40" height="40" as="geometry" />
        </mxCell>
        <mxCell id="KeqWKgS8gJ3fwngXlHam-30" value="GND" style="ellipse;whiteSpace=wrap;html=1;aspect=fixed;fillColor=#323232;fontColor=#F9F9F9;strokeColor=#666666;strokeWidth=2;" vertex="1" parent="1">
          <mxGeometry x="105" y="390" width="40" height="40" as="geometry" />
        </mxCell>
        <mxCell id="KeqWKgS8gJ3fwngXlHam-31" value="" style="ellipse;whiteSpace=wrap;html=1;aspect=fixed;strokeWidth=2;" vertex="1" parent="1">
          <mxGeometry x="145" y="390" width="40" height="40" as="geometry" />
        </mxCell>
        <mxCell id="KeqWKgS8gJ3fwngXlHam-32" value="" style="ellipse;whiteSpace=wrap;html=1;aspect=fixed;strokeWidth=2;" vertex="1" parent="1">
          <mxGeometry x="185" y="390" width="40" height="40" as="geometry" />
        </mxCell>
        <mxCell id="KeqWKgS8gJ3fwngXlHam-33" value="PWM" style="ellipse;whiteSpace=wrap;html=1;aspect=fixed;fillColor=#d5e8d4;strokeColor=#82b366;strokeWidth=2;" vertex="1" parent="1">
          <mxGeometry x="225" y="390" width="40" height="40" as="geometry" />
        </mxCell>
        <mxCell id="KeqWKgS8gJ3fwngXlHam-34" value="GND" style="ellipse;whiteSpace=wrap;html=1;aspect=fixed;fillColor=none;fontColor=default;strokeColor=#666666;strokeWidth=2;" vertex="1" parent="1">
          <mxGeometry x="265" y="390" width="40" height="40" as="geometry" />
        </mxCell>
        <mxCell id="KeqWKgS8gJ3fwngXlHam-35" value="" style="ellipse;whiteSpace=wrap;html=1;aspect=fixed;strokeWidth=2;" vertex="1" parent="1">
          <mxGeometry x="305" y="390" width="40" height="40" as="geometry" />
        </mxCell>
        <mxCell id="KeqWKgS8gJ3fwngXlHam-36" value="" style="ellipse;whiteSpace=wrap;html=1;aspect=fixed;strokeWidth=2;" vertex="1" parent="1">
          <mxGeometry x="345" y="390" width="40" height="40" as="geometry" />
        </mxCell>
        <mxCell id="KeqWKgS8gJ3fwngXlHam-37" value="GND" style="ellipse;whiteSpace=wrap;html=1;aspect=fixed;fillColor=none;fontColor=default;strokeColor=#666666;strokeWidth=2;" vertex="1" parent="1">
          <mxGeometry x="385" y="390" width="40" height="40" as="geometry" />
        </mxCell>
        <mxCell id="KeqWKgS8gJ3fwngXlHam-38" value="" style="ellipse;whiteSpace=wrap;html=1;aspect=fixed;strokeWidth=2;" vertex="1" parent="1">
          <mxGeometry x="425" y="390" width="40" height="40" as="geometry" />
        </mxCell>
        <mxCell id="KeqWKgS8gJ3fwngXlHam-39" value="" style="ellipse;whiteSpace=wrap;html=1;aspect=fixed;strokeWidth=2;" vertex="1" parent="1">
          <mxGeometry x="465" y="390" width="40" height="40" as="geometry" />
        </mxCell>
        <mxCell id="KeqWKgS8gJ3fwngXlHam-40" value="" style="ellipse;whiteSpace=wrap;html=1;aspect=fixed;strokeWidth=2;" vertex="1" parent="1">
          <mxGeometry x="505" y="390" width="40" height="40" as="geometry" />
        </mxCell>
        <mxCell id="KeqWKgS8gJ3fwngXlHam-41" value="" style="ellipse;whiteSpace=wrap;html=1;aspect=fixed;strokeWidth=2;" vertex="1" parent="1">
          <mxGeometry x="545" y="390" width="40" height="40" as="geometry" />
        </mxCell>
        <mxCell id="KeqWKgS8gJ3fwngXlHam-42" value="GND" style="ellipse;whiteSpace=wrap;html=1;aspect=fixed;fillColor=none;fontColor=default;strokeColor=#666666;strokeWidth=2;" vertex="1" parent="1">
          <mxGeometry x="585" y="390" width="40" height="40" as="geometry" />
        </mxCell>
        <mxCell id="KeqWKgS8gJ3fwngXlHam-43" value="PWM" style="ellipse;whiteSpace=wrap;html=1;aspect=fixed;fillColor=none;strokeColor=#82b366;fontStyle=0;strokeWidth=2;" vertex="1" parent="1">
          <mxGeometry x="625" y="390" width="40" height="40" as="geometry" />
        </mxCell>
        <mxCell id="KeqWKgS8gJ3fwngXlHam-44" value="GND" style="ellipse;whiteSpace=wrap;html=1;aspect=fixed;fillColor=#323232;fontColor=#FFFFFF;strokeColor=#666666;strokeWidth=2;" vertex="1" parent="1">
          <mxGeometry x="665" y="390" width="40" height="40" as="geometry" />
        </mxCell>
        <mxCell id="KeqWKgS8gJ3fwngXlHam-90" style="edgeStyle=orthogonalEdgeStyle;rounded=0;orthogonalLoop=1;jettySize=auto;html=1;entryX=1;entryY=0.8;entryDx=0;entryDy=0;fillColor=#fff2cc;strokeColor=#d6b656;strokeWidth=2;" edge="1" parent="1" source="KeqWKgS8gJ3fwngXlHam-45" target="KeqWKgS8gJ3fwngXlHam-89">
          <mxGeometry relative="1" as="geometry">
            <Array as="points">
              <mxPoint x="725" y="365" />
              <mxPoint x="740" y="365" />
            </Array>
          </mxGeometry>
        </mxCell>
        <mxCell id="KeqWKgS8gJ3fwngXlHam-45" value="*" style="ellipse;whiteSpace=wrap;html=1;aspect=fixed;fillColor=#fff2cc;strokeColor=#d6b656;strokeWidth=2;" vertex="1" parent="1">
          <mxGeometry x="705" y="390" width="40" height="40" as="geometry" />
        </mxCell>
        <mxCell id="KeqWKgS8gJ3fwngXlHam-46" value="" style="ellipse;whiteSpace=wrap;html=1;aspect=fixed;strokeWidth=2;" vertex="1" parent="1">
          <mxGeometry x="745" y="390" width="40" height="40" as="geometry" />
        </mxCell>
        <mxCell id="KeqWKgS8gJ3fwngXlHam-47" value="" style="ellipse;whiteSpace=wrap;html=1;aspect=fixed;strokeWidth=2;" vertex="1" parent="1">
          <mxGeometry x="785" y="390" width="40" height="40" as="geometry" />
        </mxCell>
        <mxCell id="KeqWKgS8gJ3fwngXlHam-48" value="M" style="verticalLabelPosition=middle;shadow=0;dashed=0;align=center;html=1;verticalAlign=middle;strokeWidth=1;shape=ellipse;aspect=fixed;fontSize=35;fillColor=#f8cecc;strokeColor=#b85450;" vertex="1" parent="1">
          <mxGeometry x="234" y="167" width="60" height="60" as="geometry" />
        </mxCell>
        <mxCell id="KeqWKgS8gJ3fwngXlHam-93" style="edgeStyle=orthogonalEdgeStyle;rounded=0;orthogonalLoop=1;jettySize=auto;html=1;entryX=0.5;entryY=1;entryDx=0;entryDy=0;strokeWidth=2;" edge="1" parent="1" source="KeqWKgS8gJ3fwngXlHam-49" target="KeqWKgS8gJ3fwngXlHam-6">
          <mxGeometry relative="1" as="geometry">
            <Array as="points">
              <mxPoint x="205" y="580" />
            </Array>
          </mxGeometry>
        </mxCell>
        <mxCell id="KeqWKgS8gJ3fwngXlHam-103" style="edgeStyle=orthogonalEdgeStyle;rounded=0;orthogonalLoop=1;jettySize=auto;html=1;entryX=0.5;entryY=1;entryDx=0;entryDy=0;strokeWidth=2;fillColor=#dae8fc;strokeColor=#6c8ebf;" edge="1" parent="1" source="KeqWKgS8gJ3fwngXlHam-49" target="KeqWKgS8gJ3fwngXlHam-7">
          <mxGeometry relative="1" as="geometry">
            <Array as="points">
              <mxPoint x="130" y="630" />
              <mxPoint x="245" y="630" />
            </Array>
          </mxGeometry>
        </mxCell>
        <mxCell id="KeqWKgS8gJ3fwngXlHam-104" style="edgeStyle=orthogonalEdgeStyle;rounded=0;orthogonalLoop=1;jettySize=auto;html=1;entryX=0.5;entryY=1;entryDx=0;entryDy=0;strokeWidth=2;fillColor=#e1d5e7;strokeColor=#9673a6;" edge="1" parent="1" source="KeqWKgS8gJ3fwngXlHam-49" target="KeqWKgS8gJ3fwngXlHam-14">
          <mxGeometry relative="1" as="geometry">
            <Array as="points">
              <mxPoint x="120" y="640" />
              <mxPoint x="285" y="640" />
            </Array>
          </mxGeometry>
        </mxCell>
        <mxCell id="KeqWKgS8gJ3fwngXlHam-49" value="" style="shape=mxgraph.pid.compressors_-_iso.compressor_(rotary);html=1;pointerEvents=1;align=center;verticalLabelPosition=bottom;verticalAlign=top;dashed=0;aspect=fixed;fillColor=#ffe6cc;strokeColor=#d79b00;" vertex="1" parent="1">
          <mxGeometry x="95" y="550" width="60" height="60" as="geometry" />
        </mxCell>
        <mxCell id="KeqWKgS8gJ3fwngXlHam-95" style="edgeStyle=orthogonalEdgeStyle;rounded=0;orthogonalLoop=1;jettySize=auto;html=1;entryX=0.5;entryY=1;entryDx=0;entryDy=0;strokeWidth=2;" edge="1" parent="1" source="KeqWKgS8gJ3fwngXlHam-50" target="KeqWKgS8gJ3fwngXlHam-20">
          <mxGeometry relative="1" as="geometry" />
        </mxCell>
        <mxCell id="KeqWKgS8gJ3fwngXlHam-101" style="edgeStyle=orthogonalEdgeStyle;rounded=0;orthogonalLoop=1;jettySize=auto;html=1;entryX=0.5;entryY=1;entryDx=0;entryDy=0;strokeWidth=2;fillColor=#e1d5e7;strokeColor=#9673a6;" edge="1" parent="1" source="KeqWKgS8gJ3fwngXlHam-50" target="KeqWKgS8gJ3fwngXlHam-23">
          <mxGeometry relative="1" as="geometry">
            <Array as="points">
              <mxPoint x="450" y="530" />
              <mxPoint x="645" y="530" />
            </Array>
          </mxGeometry>
        </mxCell>
        <mxCell id="KeqWKgS8gJ3fwngXlHam-102" style="edgeStyle=orthogonalEdgeStyle;rounded=0;orthogonalLoop=1;jettySize=auto;html=1;entryX=0.5;entryY=1;entryDx=0;entryDy=0;strokeWidth=2;fillColor=#dae8fc;strokeColor=#6c8ebf;" edge="1" parent="1" source="KeqWKgS8gJ3fwngXlHam-50" target="KeqWKgS8gJ3fwngXlHam-22">
          <mxGeometry relative="1" as="geometry">
            <Array as="points">
              <mxPoint x="440" y="520" />
              <mxPoint x="605" y="520" />
            </Array>
          </mxGeometry>
        </mxCell>
        <mxCell id="KeqWKgS8gJ3fwngXlHam-50" value="" style="shape=mxgraph.pid.compressors_-_iso.compressor_(rotary);html=1;pointerEvents=1;align=center;verticalLabelPosition=bottom;verticalAlign=top;dashed=0;aspect=fixed;fillColor=#ffe6cc;strokeColor=#d79b00;" vertex="1" parent="1">
          <mxGeometry x="415" y="550" width="60" height="60" as="geometry" />
        </mxCell>
        <mxCell id="KeqWKgS8gJ3fwngXlHam-52" value="" style="html=1;shape=mxgraph.electrical.electro-mechanical.singleSwitch;aspect=fixed;elSwitchState=off;rotation=90;" vertex="1" parent="1">
          <mxGeometry x="162.5" y="120" width="75" height="20" as="geometry" />
        </mxCell>
        <mxCell id="KeqWKgS8gJ3fwngXlHam-53" value="" style="html=1;shape=mxgraph.electrical.electro-mechanical.singleSwitch;aspect=fixed;elSwitchState=off;rotation=90;" vertex="1" parent="1">
          <mxGeometry x="162.5" y="247" width="75" height="20" as="geometry" />
        </mxCell>
        <mxCell id="KeqWKgS8gJ3fwngXlHam-68" style="rounded=0;orthogonalLoop=1;jettySize=auto;html=1;exitX=0;exitY=0.8;exitDx=0;exitDy=0;entryX=0;entryY=0.8;entryDx=0;entryDy=0;endArrow=none;startFill=0;fillColor=#f8cecc;strokeColor=#b85450;" edge="1" parent="1" source="KeqWKgS8gJ3fwngXlHam-56" target="KeqWKgS8gJ3fwngXlHam-52">
          <mxGeometry relative="1" as="geometry" />
        </mxCell>
        <mxCell id="KeqWKgS8gJ3fwngXlHam-56" value="" style="html=1;shape=mxgraph.electrical.electro-mechanical.singleSwitch;aspect=fixed;elSwitchState=off;rotation=90;flipH=1;" vertex="1" parent="1">
          <mxGeometry x="300" y="120" width="75" height="20" as="geometry" />
        </mxCell>
        <mxCell id="KeqWKgS8gJ3fwngXlHam-57" value="" style="html=1;shape=mxgraph.electrical.electro-mechanical.singleSwitch;aspect=fixed;elSwitchState=off;rotation=90;flipH=1;" vertex="1" parent="1">
          <mxGeometry x="300" y="247" width="75" height="20" as="geometry" />
        </mxCell>
        <mxCell id="KeqWKgS8gJ3fwngXlHam-69" style="rounded=0;orthogonalLoop=1;jettySize=auto;html=1;exitX=1;exitY=0.5;exitDx=0;exitDy=0;exitPerimeter=0;entryX=0;entryY=0.5;entryDx=0;entryDy=0;endArrow=none;startFill=0;" edge="1" parent="1" source="KeqWKgS8gJ3fwngXlHam-62" target="KeqWKgS8gJ3fwngXlHam-48">
          <mxGeometry relative="1" as="geometry" />
        </mxCell>
        <mxCell id="KeqWKgS8gJ3fwngXlHam-71" style="edgeStyle=orthogonalEdgeStyle;rounded=0;orthogonalLoop=1;jettySize=auto;html=1;exitX=1;exitY=0.5;exitDx=0;exitDy=0;exitPerimeter=0;entryX=0;entryY=0.8;entryDx=0;entryDy=0;endArrow=none;startFill=0;" edge="1" parent="1" source="KeqWKgS8gJ3fwngXlHam-62" target="KeqWKgS8gJ3fwngXlHam-53">
          <mxGeometry relative="1" as="geometry" />
        </mxCell>
        <mxCell id="KeqWKgS8gJ3fwngXlHam-62" value="" style="verticalLabelPosition=bottom;shadow=0;dashed=0;align=center;html=1;verticalAlign=top;shape=mxgraph.electrical.logic_gates.logic_gate;operation=and;rotation=90;aspect=fixed;fillColor=#e1d5e7;strokeColor=#9673a6;" vertex="1" parent="1">
          <mxGeometry x="165" y="161" width="45" height="27" as="geometry" />
        </mxCell>
        <mxCell id="KeqWKgS8gJ3fwngXlHam-124" style="edgeStyle=orthogonalEdgeStyle;rounded=0;orthogonalLoop=1;jettySize=auto;html=1;exitX=1;exitY=0.5;exitDx=0;exitDy=0;exitPerimeter=0;entryX=0.5;entryY=0;entryDx=0;entryDy=0;strokeWidth=2;" edge="1" parent="1" source="KeqWKgS8gJ3fwngXlHam-63" target="KeqWKgS8gJ3fwngXlHam-30">
          <mxGeometry relative="1" as="geometry">
            <Array as="points">
              <mxPoint x="125" y="324" />
            </Array>
          </mxGeometry>
        </mxCell>
        <mxCell id="KeqWKgS8gJ3fwngXlHam-63" value="" style="verticalLabelPosition=bottom;shadow=0;dashed=0;align=center;html=1;verticalAlign=top;shape=mxgraph.electrical.logic_gates.logic_gate;operation=and;rotation=90;aspect=fixed;fillColor=#dae8fc;strokeColor=#6c8ebf;" vertex="1" parent="1">
          <mxGeometry x="165" y="288" width="45" height="27" as="geometry" />
        </mxCell>
        <mxCell id="KeqWKgS8gJ3fwngXlHam-70" style="rounded=0;orthogonalLoop=1;jettySize=auto;html=1;exitX=1;exitY=0.5;exitDx=0;exitDy=0;exitPerimeter=0;entryX=1;entryY=0.5;entryDx=0;entryDy=0;endArrow=none;startFill=0;" edge="1" parent="1" source="KeqWKgS8gJ3fwngXlHam-65" target="KeqWKgS8gJ3fwngXlHam-48">
          <mxGeometry relative="1" as="geometry" />
        </mxCell>
        <mxCell id="KeqWKgS8gJ3fwngXlHam-72" style="edgeStyle=orthogonalEdgeStyle;rounded=0;orthogonalLoop=1;jettySize=auto;html=1;exitX=1;exitY=0.5;exitDx=0;exitDy=0;exitPerimeter=0;entryX=0;entryY=0.8;entryDx=0;entryDy=0;endArrow=none;startFill=0;" edge="1" parent="1" source="KeqWKgS8gJ3fwngXlHam-65" target="KeqWKgS8gJ3fwngXlHam-57">
          <mxGeometry relative="1" as="geometry" />
        </mxCell>
        <mxCell id="KeqWKgS8gJ3fwngXlHam-65" value="" style="verticalLabelPosition=bottom;shadow=0;dashed=0;align=center;html=1;verticalAlign=top;shape=mxgraph.electrical.logic_gates.logic_gate;operation=and;rotation=90;aspect=fixed;fillColor=#dae8fc;strokeColor=#6c8ebf;" vertex="1" parent="1">
          <mxGeometry x="316" y="161" width="45" height="27" as="geometry" />
        </mxCell>
        <mxCell id="KeqWKgS8gJ3fwngXlHam-66" value="" style="verticalLabelPosition=bottom;shadow=0;dashed=0;align=center;html=1;verticalAlign=top;shape=mxgraph.electrical.logic_gates.logic_gate;operation=and;rotation=90;aspect=fixed;fillColor=#e1d5e7;strokeColor=#9673a6;" vertex="1" parent="1">
          <mxGeometry x="316" y="288" width="45" height="27" as="geometry" />
        </mxCell>
        <mxCell id="KeqWKgS8gJ3fwngXlHam-67" style="rounded=0;orthogonalLoop=1;jettySize=auto;html=1;exitX=1;exitY=0.5;exitDx=0;exitDy=0;exitPerimeter=0;entryX=1;entryY=0.5;entryDx=0;entryDy=0;entryPerimeter=0;endArrow=none;startFill=0;" edge="1" parent="1" source="KeqWKgS8gJ3fwngXlHam-63" target="KeqWKgS8gJ3fwngXlHam-66">
          <mxGeometry relative="1" as="geometry" />
        </mxCell>
        <mxCell id="KeqWKgS8gJ3fwngXlHam-77" style="edgeStyle=orthogonalEdgeStyle;rounded=0;orthogonalLoop=1;jettySize=auto;html=1;entryX=0;entryY=0.25;entryDx=0;entryDy=0;entryPerimeter=0;fillColor=#e1d5e7;strokeColor=#9673a6;strokeWidth=2;" edge="1" parent="1" source="KeqWKgS8gJ3fwngXlHam-36" target="KeqWKgS8gJ3fwngXlHam-66">
          <mxGeometry relative="1" as="geometry">
            <Array as="points">
              <mxPoint x="365" y="260" />
              <mxPoint x="345" y="260" />
            </Array>
          </mxGeometry>
        </mxCell>
        <mxCell id="KeqWKgS8gJ3fwngXlHam-78" style="edgeStyle=orthogonalEdgeStyle;rounded=0;orthogonalLoop=1;jettySize=auto;html=1;entryX=0;entryY=0.75;entryDx=0;entryDy=0;entryPerimeter=0;fillColor=#dae8fc;strokeColor=#6c8ebf;strokeWidth=2;" edge="1" parent="1" source="KeqWKgS8gJ3fwngXlHam-35" target="KeqWKgS8gJ3fwngXlHam-63">
          <mxGeometry relative="1" as="geometry">
            <Array as="points">
              <mxPoint x="325" y="360" />
              <mxPoint x="150" y="360" />
              <mxPoint x="150" y="260" />
              <mxPoint x="181" y="260" />
            </Array>
          </mxGeometry>
        </mxCell>
        <mxCell id="KeqWKgS8gJ3fwngXlHam-79" style="edgeStyle=orthogonalEdgeStyle;rounded=0;orthogonalLoop=1;jettySize=auto;html=1;entryX=0;entryY=0.25;entryDx=0;entryDy=0;entryPerimeter=0;fillColor=#dae8fc;strokeColor=#6c8ebf;strokeWidth=2;" edge="1" parent="1" source="KeqWKgS8gJ3fwngXlHam-35" target="KeqWKgS8gJ3fwngXlHam-65">
          <mxGeometry relative="1" as="geometry">
            <Array as="points">
              <mxPoint x="325" y="360" />
              <mxPoint x="380" y="360" />
              <mxPoint x="380" y="130" />
              <mxPoint x="345" y="130" />
            </Array>
          </mxGeometry>
        </mxCell>
        <mxCell id="KeqWKgS8gJ3fwngXlHam-80" style="edgeStyle=orthogonalEdgeStyle;rounded=0;orthogonalLoop=1;jettySize=auto;html=1;entryX=0;entryY=0.75;entryDx=0;entryDy=0;entryPerimeter=0;fillColor=#e1d5e7;strokeColor=#9673a6;strokeWidth=2;" edge="1" parent="1" source="KeqWKgS8gJ3fwngXlHam-36" target="KeqWKgS8gJ3fwngXlHam-62">
          <mxGeometry relative="1" as="geometry">
            <Array as="points">
              <mxPoint x="365" y="350" />
              <mxPoint x="140" y="350" />
              <mxPoint x="140" y="130" />
              <mxPoint x="181" y="130" />
            </Array>
          </mxGeometry>
        </mxCell>
        <mxCell id="KeqWKgS8gJ3fwngXlHam-82" value="" style="verticalLabelPosition=bottom;shadow=0;dashed=0;align=center;html=1;verticalAlign=top;shape=mxgraph.electrical.logic_gates.logic_gate;operation=and;rotation=0;aspect=fixed;fillColor=#d5e8d4;strokeColor=#82b366;" vertex="1" parent="1">
          <mxGeometry x="149" y="79" width="45" height="27" as="geometry" />
        </mxCell>
        <mxCell id="KeqWKgS8gJ3fwngXlHam-83" style="edgeStyle=orthogonalEdgeStyle;rounded=0;orthogonalLoop=1;jettySize=auto;html=1;entryX=0;entryY=0.75;entryDx=0;entryDy=0;entryPerimeter=0;fillColor=#f8cecc;strokeColor=#b85450;strokeWidth=2;" edge="1" parent="1" source="KeqWKgS8gJ3fwngXlHam-28" target="KeqWKgS8gJ3fwngXlHam-82">
          <mxGeometry relative="1" as="geometry">
            <Array as="points">
              <mxPoint x="45" y="99" />
            </Array>
          </mxGeometry>
        </mxCell>
        <mxCell id="KeqWKgS8gJ3fwngXlHam-84" style="edgeStyle=orthogonalEdgeStyle;rounded=0;orthogonalLoop=1;jettySize=auto;html=1;entryX=0;entryY=0.25;entryDx=0;entryDy=0;entryPerimeter=0;fillColor=#d5e8d4;strokeColor=#82b366;strokeWidth=2;" edge="1" parent="1" source="KeqWKgS8gJ3fwngXlHam-33" target="KeqWKgS8gJ3fwngXlHam-82">
          <mxGeometry relative="1" as="geometry">
            <Array as="points">
              <mxPoint x="245" y="370" />
              <mxPoint x="110" y="370" />
              <mxPoint x="110" y="86" />
            </Array>
          </mxGeometry>
        </mxCell>
        <mxCell id="KeqWKgS8gJ3fwngXlHam-88" style="edgeStyle=orthogonalEdgeStyle;rounded=0;orthogonalLoop=1;jettySize=auto;html=1;exitX=1;exitY=0.8;exitDx=0;exitDy=0;entryX=0.5;entryY=1;entryDx=0;entryDy=0;strokeWidth=2;" edge="1" parent="1" source="KeqWKgS8gJ3fwngXlHam-85" target="KeqWKgS8gJ3fwngXlHam-27">
          <mxGeometry relative="1" as="geometry">
            <Array as="points">
              <mxPoint x="825" y="510" />
              <mxPoint x="805" y="510" />
            </Array>
          </mxGeometry>
        </mxCell>
        <mxCell id="KeqWKgS8gJ3fwngXlHam-85" value="" style="html=1;shape=mxgraph.electrical.electro-mechanical.pushbutton;aspect=fixed;elSwitchState=off;fillColor=#fff2cc;strokeColor=#d6b656;" vertex="1" parent="1">
          <mxGeometry x="750" y="530" width="75" height="20" as="geometry" />
        </mxCell>
        <mxCell id="KeqWKgS8gJ3fwngXlHam-91" style="edgeStyle=orthogonalEdgeStyle;rounded=0;orthogonalLoop=1;jettySize=auto;html=1;exitX=0;exitY=0.8;exitDx=0;exitDy=0;entryX=0.5;entryY=0;entryDx=0;entryDy=0;strokeWidth=2;" edge="1" parent="1" source="KeqWKgS8gJ3fwngXlHam-89" target="KeqWKgS8gJ3fwngXlHam-44">
          <mxGeometry relative="1" as="geometry">
            <Array as="points">
              <mxPoint x="665" y="365" />
              <mxPoint x="685" y="365" />
            </Array>
          </mxGeometry>
        </mxCell>
        <mxCell id="KeqWKgS8gJ3fwngXlHam-89" value="" style="html=1;shape=mxgraph.electrical.electro-mechanical.singleSwitch;aspect=fixed;elSwitchState=off;flipH=1;fillColor=#fff2cc;strokeColor=#d6b656;" vertex="1" parent="1">
          <mxGeometry x="665" y="320" width="75" height="20" as="geometry" />
        </mxCell>
        <mxCell id="KeqWKgS8gJ3fwngXlHam-92" style="edgeStyle=orthogonalEdgeStyle;rounded=0;orthogonalLoop=1;jettySize=auto;html=1;entryX=0;entryY=0.5;entryDx=0;entryDy=0;entryPerimeter=0;fillColor=#ffe6cc;strokeColor=#d79b00;strokeWidth=2;" edge="1" parent="1" source="KeqWKgS8gJ3fwngXlHam-2" target="KeqWKgS8gJ3fwngXlHam-49">
          <mxGeometry relative="1" as="geometry">
            <Array as="points">
              <mxPoint x="45" y="580" />
            </Array>
          </mxGeometry>
        </mxCell>
        <mxCell id="KeqWKgS8gJ3fwngXlHam-94" style="edgeStyle=orthogonalEdgeStyle;rounded=0;orthogonalLoop=1;jettySize=auto;html=1;entryX=0;entryY=0.5;entryDx=0;entryDy=0;entryPerimeter=0;fillColor=#ffe6cc;strokeColor=#d79b00;strokeWidth=2;" edge="1" parent="1" source="KeqWKgS8gJ3fwngXlHam-16" target="KeqWKgS8gJ3fwngXlHam-50">
          <mxGeometry relative="1" as="geometry">
            <Array as="points">
              <mxPoint x="360" y="580" />
            </Array>
          </mxGeometry>
        </mxCell>
        <mxCell id="KeqWKgS8gJ3fwngXlHam-105" value="Motor" style="text;html=1;align=center;verticalAlign=middle;whiteSpace=wrap;rounded=0;fontStyle=5" vertex="1" parent="1">
          <mxGeometry x="234" y="137" width="60" height="30" as="geometry" />
        </mxCell>
        <mxCell id="KeqWKgS8gJ3fwngXlHam-106" value="&lt;u&gt;H-Bridge&lt;/u&gt;&lt;span style=&quot;font-weight: normal;&quot;&gt; &lt;/span&gt;&lt;span style=&quot;font-weight: normal;&quot;&gt;&lt;/span&gt;&lt;span style=&quot;font-weight: normal;&quot;&gt;(Motor Driver)&lt;/span&gt;" style="text;html=1;align=center;verticalAlign=middle;whiteSpace=wrap;rounded=0;fontStyle=5;fontColor=#909090;" vertex="1" parent="1">
          <mxGeometry x="218" y="40" width="145" height="30" as="geometry" />
        </mxCell>
        <mxCell id="KeqWKgS8gJ3fwngXlHam-107" value="Hinge-Arm Switch" style="text;html=1;align=center;verticalAlign=middle;whiteSpace=wrap;rounded=0;fontStyle=5" vertex="1" parent="1">
          <mxGeometry x="656.25" y="280" width="92.5" height="30" as="geometry" />
        </mxCell>
        <mxCell id="KeqWKgS8gJ3fwngXlHam-109" value="Button" style="text;html=1;align=center;verticalAlign=middle;whiteSpace=wrap;rounded=0;fontStyle=5" vertex="1" parent="1">
          <mxGeometry x="741.25" y="550" width="92.5" height="30" as="geometry" />
        </mxCell>
        <mxCell id="KeqWKgS8gJ3fwngXlHam-110" value="Rotary Encoder with Dial-Button" style="text;html=1;align=center;verticalAlign=middle;whiteSpace=wrap;rounded=0;fontStyle=5" vertex="1" parent="1">
          <mxGeometry x="475" y="590" width="105" height="30" as="geometry" />
        </mxCell>
        <mxCell id="KeqWKgS8gJ3fwngXlHam-111" value="Rotary Encoder" style="text;html=1;align=center;verticalAlign=middle;whiteSpace=wrap;rounded=0;fontStyle=5" vertex="1" parent="1">
          <mxGeometry x="78.75" y="520" width="92.5" height="30" as="geometry" />
        </mxCell>
        <mxCell id="KeqWKgS8gJ3fwngXlHam-112" value="+" style="text;html=1;align=center;verticalAlign=middle;whiteSpace=wrap;rounded=0;fontColor=#B85450;" vertex="1" parent="1">
          <mxGeometry y="217" width="60" height="30" as="geometry" />
        </mxCell>
        <mxCell id="KeqWKgS8gJ3fwngXlHam-113" value="+" style="text;html=1;align=center;verticalAlign=middle;whiteSpace=wrap;rounded=0;fontColor=#FFB570;" vertex="1" parent="1">
          <mxGeometry y="520" width="60" height="30" as="geometry" />
        </mxCell>
        <mxCell id="KeqWKgS8gJ3fwngXlHam-114" value="+" style="text;html=1;align=center;verticalAlign=middle;whiteSpace=wrap;rounded=0;fontColor=#FFB570;" vertex="1" parent="1">
          <mxGeometry x="316" y="520" width="60" height="30" as="geometry" />
        </mxCell>
        <mxCell id="KeqWKgS8gJ3fwngXlHam-115" value="-" style="text;html=1;align=center;verticalAlign=middle;whiteSpace=wrap;rounded=0;fontColor=#000000;" vertex="1" parent="1">
          <mxGeometry x="185" y="520" width="60" height="30" as="geometry" />
        </mxCell>
        <mxCell id="KeqWKgS8gJ3fwngXlHam-116" value="-" style="text;html=1;align=center;verticalAlign=middle;whiteSpace=wrap;rounded=0;fontColor=#000000;" vertex="1" parent="1">
          <mxGeometry x="505" y="540" width="60" height="30" as="geometry" />
        </mxCell>
        <mxCell id="KeqWKgS8gJ3fwngXlHam-117" value="-" style="text;html=1;align=center;verticalAlign=middle;whiteSpace=wrap;rounded=0;fontColor=#000000;" vertex="1" parent="1">
          <mxGeometry x="800" y="490" width="60" height="30" as="geometry" />
        </mxCell>
        <mxCell id="KeqWKgS8gJ3fwngXlHam-119" value="-" style="text;html=1;align=center;verticalAlign=middle;whiteSpace=wrap;rounded=0;fontColor=#000000;" vertex="1" parent="1">
          <mxGeometry x="625" y="340" width="60" height="30" as="geometry" />
        </mxCell>
        <mxCell id="KeqWKgS8gJ3fwngXlHam-121" value="-" style="text;html=1;align=center;verticalAlign=middle;whiteSpace=wrap;rounded=0;fontColor=#000000;" vertex="1" parent="1">
          <mxGeometry x="102.5" y="340" width="60" height="30" as="geometry" />
        </mxCell>
        <mxCell id="KeqWKgS8gJ3fwngXlHam-125" value="IN1" style="text;html=1;align=center;verticalAlign=middle;whiteSpace=wrap;rounded=0;fontColor=#7EA6E0;" vertex="1" parent="1">
          <mxGeometry x="370" y="210" width="60" height="30" as="geometry" />
        </mxCell>
        <mxCell id="KeqWKgS8gJ3fwngXlHam-127" value="&lt;div&gt;ENA&lt;/div&gt;&lt;div&gt;(PWM)&lt;/div&gt;" style="text;html=1;align=center;verticalAlign=middle;whiteSpace=wrap;rounded=0;fontColor=#97D077;" vertex="1" parent="1">
          <mxGeometry x="54" y="119" width="60" height="30" as="geometry" />
        </mxCell>
        <mxCell id="KeqWKgS8gJ3fwngXlHam-129" value="IN2" style="text;html=1;align=center;verticalAlign=middle;whiteSpace=wrap;rounded=0;fontColor=#A680B8;" vertex="1" parent="1">
          <mxGeometry x="128" y="210" width="60" height="30" as="geometry" />
        </mxCell>
        <mxCell id="KeqWKgS8gJ3fwngXlHam-130" value="CLK" style="text;html=1;align=center;verticalAlign=middle;whiteSpace=wrap;rounded=0;fontColor=#7EA6E0;" vertex="1" parent="1">
          <mxGeometry x="158" y="600" width="60" height="30" as="geometry" />
        </mxCell>
        <mxCell id="KeqWKgS8gJ3fwngXlHam-131" value="DT" style="text;html=1;align=center;verticalAlign=middle;whiteSpace=wrap;rounded=0;fontColor=#A680B8;" vertex="1" parent="1">
          <mxGeometry x="280" y="600" width="60" height="30" as="geometry" />
        </mxCell>
        <mxCell id="KeqWKgS8gJ3fwngXlHam-132" value="CLK" style="text;html=1;align=center;verticalAlign=middle;whiteSpace=wrap;rounded=0;fontColor=#7EA6E0;" vertex="1" parent="1">
          <mxGeometry x="545" y="490" width="60" height="30" as="geometry" />
        </mxCell>
        <mxCell id="KeqWKgS8gJ3fwngXlHam-133" value="DT" style="text;html=1;align=center;verticalAlign=middle;whiteSpace=wrap;rounded=0;fontColor=#A680B8;" vertex="1" parent="1">
          <mxGeometry x="545" y="525" width="60" height="30" as="geometry" />
        </mxCell>
        <mxCell id="KeqWKgS8gJ3fwngXlHam-134" value="High" style="text;html=1;align=center;verticalAlign=middle;whiteSpace=wrap;rounded=0;fontColor=#FFD966;" vertex="1" parent="1">
          <mxGeometry x="735" y="340" width="60" height="30" as="geometry" />
        </mxCell>
        <mxCell id="KeqWKgS8gJ3fwngXlHam-135" value="High" style="text;html=1;align=center;verticalAlign=middle;whiteSpace=wrap;rounded=0;fontColor=#FFD966;" vertex="1" parent="1">
          <mxGeometry x="705" y="490" width="60" height="30" as="geometry" />
        </mxCell>
        <mxCell id="KeqWKgS8gJ3fwngXlHam-136" value="* 3.3v logic high used, with internal pull-up, to read HIGH on a complete circuit" style="rounded=1;whiteSpace=wrap;html=1;sketch=1;curveFitting=1;jiggle=2;fontSize=11;fillColor=#fff2cc;strokeColor=#d6b656;" vertex="1" parent="1">
          <mxGeometry x="625" y="190" width="195" height="70" as="geometry" />
        </mxCell>
        <mxCell id="KeqWKgS8gJ3fwngXlHam-137" value="" style="html=1;shape=mxgraph.electrical.electro-mechanical.singleSwitch;aspect=fixed;elSwitchState=off;flipH=1;fillColor=#fff2cc;strokeColor=#d6b656;" vertex="1" parent="1">
          <mxGeometry x="526" y="564" width="75" height="20" as="geometry" />
        </mxCell>
        <mxCell id="KeqWKgS8gJ3fwngXlHam-139" value="High" style="text;html=1;align=center;verticalAlign=middle;whiteSpace=wrap;rounded=0;fontColor=#FFD966;" vertex="1" parent="1">
          <mxGeometry x="632" y="551" width="60" height="30" as="geometry" />
        </mxCell>
      </root>
    </mxGraphModel>
  </diagram>
</mxfile>
